<?xml version="1.0" standalone="no"?>
<!DOCTYPE svg PUBLIC "-//W3C//DTD SVG 20010904//EN"
 "http://www.w3.org/TR/2001/REC-SVG-20010904/DTD/svg10.dtd">
<svg version="1.0" xmlns="http://www.w3.org/2000/svg"
 width="867.000000pt" height="1076.000000pt" viewBox="0 0 867.000000 1076.000000"
 preserveAspectRatio="xMidYMid meet">

<g transform="translate(0.000000,1076.000000) scale(0.100000,-0.100000)"
fill="#000000" stroke="none">
<path d="M4496 10750 c-717 -53 -1397 -326 -1946 -780 -116 -96 -336 -315
-432 -430 -710 -847 -970 -1975 -702 -3045 27 -108 108 -361 123 -384 8 -12
19 -12 67 -3 80 17 203 15 285 -4 38 -8 69 -19 69 -22 -1 -16 -19 -34 -28 -28
-5 3 -12 -3 -15 -14 -3 -11 -9 -20 -14 -19 -29 5 -58 -17 -55 -42 1 -4 -8 -5
-18 -2 -18 5 -25 -5 -21 -30 1 -4 -10 -13 -24 -19 -14 -6 -25 -17 -25 -25 0
-7 -9 -13 -21 -13 -11 0 -27 -7 -35 -15 -9 -8 -25 -15 -37 -15 -13 0 -30 -9
-40 -20 -10 -12 -29 -20 -47 -20 -21 0 -30 -5 -30 -17 0 -9 -3 -13 -7 -10 -3
4 -17 0 -30 -8 -13 -9 -23 -13 -23 -9 0 3 -15 -3 -32 -14 -18 -11 -46 -23 -63
-26 -16 -4 -37 -14 -47 -22 -9 -9 -22 -14 -30 -13 -27 3 -37 -1 -32 -15 4 -9
-2 -14 -18 -14 -48 -2 -73 -9 -76 -24 -2 -12 -12 -13 -48 -8 -24 4 -47 3 -50
-2 -3 -5 -14 -6 -24 -3 -12 4 -27 -3 -44 -22 -30 -32 -32 -43 -11 -43 8 0 15
5 15 10 0 13 66 13 92 -1 14 -7 23 -8 30 -1 6 6 17 8 24 5 9 -3 14 3 15 18 l1
24 7 -24 c6 -23 7 -23 24 -7 15 16 18 16 23 2 8 -21 24 -20 25 2 0 14 2 14 8
-3 l8 -20 7 20 c3 11 17 25 30 31 21 10 26 9 31 -5 6 -14 7 -14 16 2 6 9 14
15 20 12 5 -4 12 0 15 9 3 8 12 12 20 9 8 -3 14 0 14 6 0 6 11 11 25 11 13 0
29 8 34 18 6 9 11 11 11 5 0 -23 27 -13 39 14 12 27 13 27 27 8 14 -18 14 -18
14 4 0 16 4 21 14 18 8 -3 17 2 21 11 5 13 8 14 14 3 11 -17 71 -5 71 15 0 17
17 19 23 2 4 -10 6 -10 6 -1 1 7 7 10 14 7 7 -2 25 9 40 26 15 16 32 30 37 30
6 0 10 6 10 14 0 9 8 12 25 8 20 -3 25 0 25 16 0 13 9 22 25 26 14 4 25 14 25
23 0 9 3 14 6 10 3 -3 17 7 31 23 13 16 30 29 36 27 7 -1 11 8 10 21 -2 13 1
20 7 17 5 -3 17 -1 27 5 14 9 32 5 84 -20 77 -36 60 -8 225 -374 52 -116 208
-458 347 -761 l253 -549 -61 -21 c-33 -12 -273 -129 -534 -259 -260 -130 -475
-236 -476 -234 -5 5 -417 951 -422 968 -3 11 3 15 19 15 13 -1 29 -5 36 -9 7
-4 21 -4 32 -1 15 5 18 3 14 -9 -4 -10 0 -14 13 -12 10 2 30 -5 45 -16 15 -10
37 -21 49 -23 12 -3 31 -12 42 -22 42 -37 87 -85 87 -94 0 -5 5 -9 10 -9 13 0
50 -37 50 -50 0 -6 4 -19 10 -30 5 -11 14 -29 20 -40 5 -11 10 -29 10 -40 0
-11 5 -20 11 -20 5 0 8 -4 5 -8 -2 -4 1 -36 9 -70 7 -34 10 -62 8 -62 -3 0 0
-7 7 -15 7 -8 10 -21 7 -30 -4 -8 1 -19 11 -24 10 -6 12 -11 4 -11 -9 0 -10
-5 -3 -19 6 -10 7 -21 3 -25 -3 -4 -1 -10 6 -15 8 -5 9 -16 3 -37 -4 -16 -7
-57 -7 -92 1 -34 -2 -62 -6 -62 -4 0 -7 -3 -6 -8 0 -4 -2 -15 -7 -25 -5 -13
-2 -24 10 -35 17 -16 17 -16 12 0 -3 10 -1 23 6 30 15 17 19 32 22 88 1 25 6
56 10 70 13 38 12 54 -5 62 -12 5 -11 7 4 7 11 1 16 6 13 15 -3 7 0 19 6 25 8
8 8 11 -1 11 -7 0 -11 3 -11 7 1 5 0 10 -1 13 -8 21 -6 40 3 40 8 0 8 3 0 11
-6 6 -9 18 -6 25 3 8 1 14 -4 14 -10 0 -11 7 -14 65 0 19 -6 35 -11 35 -6 0
-8 9 -5 20 3 11 1 20 -5 20 -5 0 -7 4 -3 9 3 5 1 12 -5 16 -7 4 -7 12 0 25 7
14 6 23 -3 32 -8 7 -12 21 -9 31 3 11 -3 24 -17 33 -11 8 -21 22 -21 30 0 8
-7 14 -16 14 -8 0 -12 5 -9 10 7 11 -60 82 -68 74 -3 -3 -14 6 -25 20 -10 14
-23 22 -26 18 -4 -4 -12 1 -17 11 -6 10 -22 17 -40 17 -17 0 -36 8 -46 20 -13
14 -19 16 -25 7 -5 -8 -8 -7 -8 5 0 11 -6 15 -20 11 -12 -3 -20 0 -20 6 0 7
-4 10 -9 6 -14 -8 -141 25 -141 37 0 5 -4 7 -9 4 -5 -3 -30 44 -56 104 -44
103 -65 137 -65 110 0 -6 17 -50 37 -98 34 -78 325 -973 319 -980 -2 -1 -271
117 -599 263 -328 145 -601 266 -607 267 -24 6 -141 -310 -235 -632 -94 -321
-155 -594 -186 -833 -29 -226 55 -517 209 -723 211 -283 526 -444 871 -445
133 0 229 16 381 67 158 51 291 123 785 423 248 151 454 276 458 278 4 3 -17
-46 -47 -109 -174 -359 -456 -951 -456 -957 0 -3 137 -71 305 -151 168 -80
305 -148 305 -151 0 -5 -140 -320 -145 -327 -1 -1 -143 65 -315 148 -172 82
-314 149 -316 147 -3 -2 -125 -257 -199 -414 -24 -50 -58 -119 -75 -152 l-30
-61 177 -86 c193 -92 179 -90 215 -25 37 66 130 91 195 51 61 -37 78 -105 47
-187 -9 -24 -15 -46 -12 -48 3 -3 151 -75 329 -161 178 -85 325 -157 328 -159
2 -3 -268 -5 -601 -5 l-606 0 -341 395 c-187 217 -341 397 -341 399 0 3 26 7
58 9 l57 3 -57 2 -58 2 0 260 c0 167 -4 260 -10 260 -6 0 -10 -93 -10 -260 l0
-260 -44 0 c-31 0 -72 13 -141 45 -129 60 -135 58 -135 -49 0 -120 4 -122 140
-57 82 39 119 51 146 49 l36 -3 -343 -397 -343 -398 -228 0 c-145 0 -228 -4
-228 -10 0 -7 640 -10 1900 -10 1260 0 1900 3 1900 10 0 6 -125 10 -355 10
-195 0 -355 2 -355 4 0 2 18 42 41 90 56 121 76 232 62 346 -6 47 -14 92 -18
101 -5 13 3 18 39 23 61 9 59 24 -2 18 -44 -4 -49 -2 -60 22 -17 39 -15 46 16
47 15 0 36 5 47 10 14 7 4 8 -36 5 -54 -4 -56 -3 -73 29 -36 67 -88 105 -236
176 -80 38 -144 74 -142 80 5 19 134 304 142 312 4 4 158 -64 343 -152 184
-89 339 -161 344 -161 4 1 50 90 102 198 52 108 98 201 101 205 9 10 140 -180
368 -531 95 -147 178 -266 184 -264 6 1 81 48 168 104 l157 102 -29 55 c-22
42 -28 65 -24 90 16 100 128 153 212 100 19 -11 34 -24 34 -27 0 -4 10 -20 23
-36 l23 -29 323 208 c240 155 321 212 316 223 -14 37 -102 158 -148 203 -57
56 -143 112 -208 134 -24 9 -49 17 -56 20 -9 3 -9 13 3 40 23 56 9 67 -14 13
-20 -46 -22 -47 -54 -41 -18 3 -34 7 -36 8 -2 1 5 21 14 44 9 23 14 45 10 48
-3 3 -15 -17 -27 -45 l-22 -52 -60 0 c-60 0 -63 -2 -180 -81 -65 -45 -120 -79
-121 -78 -25 32 -196 289 -196 295 0 9 533 354 547 354 4 0 50 -63 102 -140
52 -77 99 -140 103 -140 13 0 11 4 -351 535 -313 459 -341 503 -341 542 0 79
-21 198 -51 284 -16 48 -29 89 -29 93 0 3 492 3 1093 -1 l1092 -6 44 109 c25
60 73 176 108 257 35 82 63 153 63 158 0 6 -27 9 -61 7 l-61 -3 -79 -185 -78
-185 -1109 -3 -1108 -2 -57 64 -56 64 92 33 c51 17 130 46 177 62 46 17 80 32
75 34 -6 2 -121 -35 -255 -81 l-245 -83 -125 186 c-166 249 -261 345 -411 419
-100 49 -203 81 -265 83 -16 0 56 28 171 66 110 35 340 110 510 165 273 88
353 118 320 118 -6 0 -244 -75 -530 -167 -430 -137 -538 -168 -624 -179 -58
-7 -106 -12 -107 -11 -1 1 -101 218 -222 482 -122 264 -259 563 -306 665 -47
102 -86 195 -86 208 0 35 24 84 56 114 16 14 110 82 209 151 170 118 195 130
195 92 0 -5 -15 -17 -33 -25 -47 -22 -71 -77 -57 -129 14 -53 60 -91 110 -91
l39 0 -29 -77 c-16 -43 -31 -85 -34 -93 -6 -16 13 -29 151 -109 40 -23 73 -45
73 -49 0 -4 36 -27 79 -52 84 -47 96 -68 59 -101 -10 -9 -15 -19 -11 -23 3 -3
2 -6 -4 -6 -13 0 -23 -46 -12 -57 4 -4 1 -14 -7 -21 -12 -11 -14 -10 -14 3 0
9 -5 13 -10 10 -6 -4 -8 -15 -5 -26 4 -11 2 -19 -5 -19 -7 0 -10 -7 -6 -15 3
-8 0 -15 -6 -15 -6 0 -9 -3 -5 -6 3 -3 -9 -34 -27 -68 -18 -34 -33 -68 -33
-76 -1 -29 -14 -135 -18 -150 -3 -8 2 -33 9 -55 14 -39 17 -41 83 -57 83 -20
130 -22 136 -5 3 9 8 9 16 1 15 -14 56 -7 72 12 6 8 20 14 30 14 11 0 19 5 19
11 0 5 5 7 11 4 6 -4 20 2 32 13 12 11 34 24 50 27 15 4 31 13 35 19 4 7 28
27 54 44 25 17 55 46 67 64 11 18 36 46 56 61 26 20 34 34 30 47 -7 22 6 21
52 -3 l32 -17 22 42 c12 24 92 178 179 343 87 165 217 414 289 554 73 140 230
417 349 616 119 199 218 366 219 371 1 6 19 39 39 73 35 59 74 91 109 91 26 0
92 -38 114 -66 28 -35 28 -115 1 -186 -11 -29 -20 -55 -20 -58 0 -3 24 -5 54
-5 47 0 59 -4 85 -29 17 -17 31 -36 31 -43 0 -18 7 -16 39 6 71 51 178 11 187
-69 6 -51 43 -245 60 -317 14 -56 14 -64 -1 -93 -37 -72 -167 -71 -206 1 -17
33 -48 204 -55 308 -11 165 -22 101 -13 -77 9 -176 5 -198 -37 -237 -31 -29
-89 -33 -133 -10 -49 25 -58 63 -66 258 -4 97 -10 177 -14 177 -7 0 -81 -160
-81 -176 0 -6 7 -18 17 -25 28 -24 53 -91 53 -149 0 -40 -8 -71 -30 -117 -16
-35 -26 -63 -21 -63 10 0 46 66 61 113 l12 39 19 -31 c64 -106 235 -61 240 64
1 24 4 19 14 -22 7 -28 21 -64 32 -80 19 -26 19 -33 7 -89 -18 -88 -55 -169
-193 -424 -67 -124 -155 -291 -194 -372 -40 -82 -74 -148 -77 -148 -3 0 -16
10 -30 21 -14 11 -18 17 -10 13 8 -4 -2 9 -23 29 -21 20 -35 41 -32 47 3 6 -1
13 -9 16 -9 3 -13 10 -10 15 3 5 0 9 -6 9 -8 0 -9 10 -5 30 4 20 3 30 -5 30
-10 0 -10 3 -1 14 10 12 9 20 -5 41 -14 21 -15 28 -5 35 10 5 10 9 1 12 -7 2
-12 27 -12 65 -1 50 -6 66 -25 87 -13 14 -28 26 -33 26 -6 0 -13 1 -17 3 -11
4 -9 -173 2 -177 6 -3 5 -5 -2 -5 -8 -1 -7 -9 3 -30 8 -17 16 -46 18 -66 2
-19 6 -38 10 -42 3 -3 6 -17 6 -30 0 -12 4 -23 9 -23 5 0 13 -12 19 -27 11
-32 79 -109 93 -106 5 2 9 -2 9 -7 0 -6 6 -10 14 -10 27 0 27 -19 -2 -77 -26
-52 -27 -61 -15 -83 19 -36 16 -59 -12 -109 -14 -24 -24 -45 -22 -47 1 -2 33
2 71 9 66 11 74 10 220 -27 168 -43 184 -49 208 -80 20 -23 24 -87 8 -117 -13
-24 -61 -49 -94 -49 -13 0 -80 16 -148 36 -236 69 -223 55 36 -40 99 -36 188
-66 197 -66 10 0 27 -12 39 -27 42 -53 13 -155 -53 -193 -25 -14 -38 -11 -212
47 -102 34 -187 58 -189 54 -3 -4 94 -40 215 -80 198 -66 221 -75 234 -101 39
-76 -15 -180 -94 -180 -10 0 -68 18 -128 39 l-109 39 -144 -94 c-79 -52 -146
-97 -149 -100 -3 -4 64 -3 149 0 167 8 449 40 460 53 4 4 97 218 206 476 l199
467 693 0 c381 0 691 -4 688 -8 -10 -17 -366 -856 -366 -864 0 -5 27 -8 61 -6
l61 3 52 125 c52 124 53 125 29 128 -28 4 -28 8 -3 66 16 39 23 46 48 46 26 0
31 7 82 130 l55 130 77 0 77 0 21 46 c11 26 20 48 20 50 0 2 -34 4 -75 4 -41
0 -75 2 -75 5 0 4 7 20 16 37 16 31 16 32 -17 59 l-33 27 120 131 c65 73 121
136 122 142 2 5 -113 9 -297 9 l-301 0 0 55 0 55 347 0 346 -1 59 83 c229 320
410 709 513 1103 80 308 109 535 109 870 0 260 -14 415 -55 635 -280 1474
-1484 2593 -2973 2765 -164 19 -476 26 -630 15z m1188 -4082 c25 -23 136 -296
136 -335 0 -36 -38 -80 -83 -98 -40 -15 -47 -15 -80 -2 -19 9 -42 26 -50 39
-9 12 -30 95 -47 183 -17 88 -34 170 -37 182 -11 49 113 73 161 31z m-2351
-479 c4 -15 11 -20 23 -15 26 10 80 -12 98 -39 9 -13 18 -42 22 -64 7 -46 -12
-85 -50 -103 -23 -10 -23 -11 -10 -62 8 -28 14 -60 14 -71 0 -86 -77 -182
-169 -209 -67 -20 -160 -21 -205 -2 -66 28 -127 97 -146 166 -6 22 -11 24 -53
21 -38 -2 -51 2 -71 22 -36 36 -44 92 -19 125 11 15 31 32 44 39 22 11 25 10
33 -13 l8 -25 24 22 c14 13 26 39 30 64 l6 43 61 12 c73 14 229 63 289 90 55
25 64 25 71 -1z m2457 -434 l0 -55 -180 0 -180 0 0 55 0 55 180 0 180 0 0 -55z
m210 0 l0 -55 -50 0 -50 0 0 55 0 55 50 0 50 0 0 -55z m600 -200 l0 -55 -295
0 -295 0 0 55 0 55 295 0 295 0 0 -55z m550 0 l0 -55 -185 0 -185 0 0 55 0 55
185 0 185 0 0 -55z m-3674 -342 c112 -65 200 -119 194 -121 -5 -2 -10 -10 -10
-17 0 -26 -35 -74 -58 -80 -29 -7 -62 -40 -62 -61 0 -11 -6 -15 -20 -11 -11 3
-20 1 -20 -4 0 -5 -6 -9 -12 -9 -7 0 -24 -12 -38 -27 -14 -14 -39 -32 -57 -39
-17 -8 -35 -18 -38 -24 -5 -8 -11 -7 -21 1 -11 9 -19 8 -37 -4 -26 -17 -96
-25 -115 -13 -7 4 -12 3 -12 -2 0 -14 -54 -1 -66 17 -8 10 -9 25 -3 45 5 17 6
46 3 64 -7 37 11 91 38 110 19 14 26 38 8 27 -5 -3 -10 -1 -10 5 0 6 6 13 14
16 7 3 16 23 20 45 3 21 11 39 16 39 6 0 10 13 10 29 0 17 4 33 10 36 5 3 18
26 29 50 11 25 22 45 26 45 3 0 98 -53 211 -117z m1674 -1738 l0 -55 -378 0
-379 0 -11 23 c-6 12 -21 37 -32 55 l-22 32 411 0 411 0 0 -55z m-858 -2122
c-174 -117 -319 -213 -323 -213 -9 0 -209 293 -208 305 1 6 146 103 322 216
l321 206 102 -150 103 -150 -317 -214z m-3331 -492 l84 -39 -87 -42 c-48 -23
-94 -40 -103 -36 -11 4 -15 22 -15 74 0 99 1 99 121 43z m186 -838 c-2 -2
-151 -2 -331 -1 l-326 3 327 380 328 380 3 -379 c1 -209 1 -381 -1 -383z m358
377 c159 -184 297 -345 308 -357 l20 -23 -331 0 -332 0 0 382 0 383 24 -25
c13 -14 153 -176 311 -360z"/>
<path d="M3225 6105 c-25 -24 -35 -75 -15 -75 6 0 10 11 10 24 0 29 24 56 51
56 10 0 19 5 19 10 0 19 -41 10 -65 -15z"/>
<path d="M3257 6064 c-9 -9 4 -34 18 -34 14 0 27 25 18 34 -4 3 -12 6 -18 6
-6 0 -14 -3 -18 -6z"/>
<path d="M2966 6029 c-26 -20 -38 -79 -16 -79 6 0 10 11 10 24 0 27 24 56 45
56 8 0 17 5 20 10 11 18 -32 10 -59 -11z"/>
<path d="M2996 5981 c-3 -5 0 -14 8 -20 10 -8 16 -8 25 2 6 8 8 17 4 20 -9 10
-31 9 -37 -2z"/>
<path d="M3230 5927 c0 -25 -6 -39 -22 -50 -13 -8 -20 -18 -17 -21 3 -3 18 3
32 15 28 21 37 71 17 84 -6 4 -10 -8 -10 -28z"/>
<path d="M3100 5829 c0 -19 48 -65 78 -74 26 -7 72 1 72 13 0 4 -18 6 -40 4
-36 -4 -44 0 -75 34 -21 23 -35 32 -35 23z"/>
<path d="M1330 5610 c0 -5 5 -10 11 -10 5 0 7 5 4 10 -3 6 -8 10 -11 10 -2 0
-4 -4 -4 -10z"/>
<path d="M7757 5401 c50 -27 106 -60 125 -74 54 -40 93 -63 85 -50 -10 17
-160 115 -224 147 -92 46 -81 27 14 -23z"/>
<path d="M791 5244 c-9 -20 -8 -35 4 -70 8 -25 15 -56 15 -69 0 -14 4 -25 9
-25 5 0 7 -9 4 -20 -3 -11 -1 -20 5 -20 17 0 33 -75 34 -162 1 -16 4 -28 8
-28 4 0 7 -6 7 -12 1 -7 4 -38 8 -68 4 -30 7 -65 7 -77 0 -13 3 -23 7 -23 4 0
7 -14 6 -30 -1 -17 2 -33 7 -36 4 -3 6 -9 4 -12 -6 -10 -19 -91 -20 -130 -1
-18 -7 -36 -14 -41 -17 -10 -12 -43 7 -49 8 -3 11 0 7 6 -4 6 0 23 9 36 9 14
18 33 20 43 2 10 4 20 5 23 1 3 1 13 0 23 -1 10 4 24 10 32 16 19 21 55 7 55
-8 0 -7 3 2 9 7 5 10 14 7 20 -4 6 -3 11 3 11 5 0 8 8 6 18 -2 9 -4 17 -5 17
-1 0 -3 8 -5 18 -2 9 1 17 6 17 5 0 5 10 -1 24 -5 13 -6 27 -3 30 4 3 1 6 -5
6 -7 0 -9 13 -7 34 3 19 0 38 -5 41 -6 4 -8 10 -5 15 3 5 1 18 -5 29 -7 13 -7
22 0 26 14 8 13 45 -1 45 -8 0 -8 4 0 14 8 10 7 22 -4 49 -8 20 -12 43 -9 51
3 9 1 16 -5 16 -6 0 -11 9 -11 19 0 11 -4 23 -10 26 -5 3 -10 19 -10 36 0 16
-4 29 -10 29 -5 0 -10 7 -10 15 0 12 -44 65 -54 65 -1 0 -8 -12 -15 -26z"/>
<path d="M8118 5109 c43 -52 115 -163 125 -193 3 -6 8 -8 12 -4 14 14 -139
238 -173 252 -7 3 9 -21 36 -55z"/>
<path d="M7330 5004 c-11 -25 -20 -48 -20 -50 0 -2 43 -4 95 -4 93 0 95 0 108
28 38 73 39 72 -68 72 l-96 0 -19 -46z"/>
<path d="M8300 4808 c0 -3 13 -47 30 -97 35 -108 67 -269 79 -406 l10 -100 -4
115 c-4 133 -24 246 -67 380 -25 80 -48 131 -48 108z"/>
<path d="M5787 4753 c-3 -5 -12 -25 -20 -45 l-16 -38 358 0 357 0 14 38 c8 20
16 40 18 45 2 4 -156 7 -352 7 -195 0 -357 -3 -359 -7z"/>
<path d="M6592 4733 c-5 -16 -13 -36 -17 -45 -7 -17 2 -18 103 -18 l110 0 10
28 c5 15 13 35 17 45 7 16 -2 17 -103 17 l-110 0 -10 -27z"/>
<path d="M4673 4683 c3 -10 17 -45 31 -78 32 -77 63 -233 72 -357 4 -54 11
-98 16 -98 17 0 -11 235 -43 364 -19 80 -62 186 -75 186 -3 0 -4 -8 -1 -17z"/>
<path d="M5676 4537 c-9 -23 -16 -46 -16 -50 0 -4 79 -7 175 -7 l174 0 14 28
c8 15 18 37 21 50 l7 22 -179 0 -179 0 -17 -43z"/>
<path d="M6102 4530 l-21 -50 99 0 99 0 21 46 c11 26 20 48 20 50 0 2 -44 4
-99 4 l-98 0 -21 -50z"/>
<path d="M6377 4553 c-38 -74 -39 -73 70 -73 l98 0 18 43 c9 23 17 46 17 50 0
4 -43 7 -95 7 -93 0 -95 0 -108 -27z"/>
<path d="M5610 4354 c-11 -25 -20 -50 -20 -55 0 -5 117 -9 280 -9 l279 0 21
46 c11 26 20 50 20 55 0 5 -126 9 -280 9 l-281 0 -19 -46z"/>
<path d="M5848 4155 l-17 -45 192 0 193 0 14 38 c8 20 16 40 18 45 2 4 -83 7
-190 7 l-194 0 -16 -45z"/>
<path d="M8406 4057 c-4 -32 -5 -61 -2 -64 7 -8 18 60 14 93 -3 21 -6 13 -12
-29z"/>
<path d="M6257 4018 c-3 -7 -12 -30 -21 -50 l-16 -38 95 0 c93 0 95 0 108 28
38 73 39 72 -66 72 -67 0 -96 -4 -100 -12z"/>
<path d="M8461 3589 c-7 -27 -12 -52 -10 -54 5 -4 164 -45 177 -45 10 0 38 98
31 104 -5 3 -172 46 -180 46 -3 0 -11 -23 -18 -51z"/>
<path d="M6747 3354 c-15 -25 -25 -49 -22 -54 2 -4 51 -35 107 -68 57 -33 119
-69 138 -80 l35 -21 28 48 27 49 -123 72 c-67 41 -131 79 -142 86 -19 12 -23
10 -48 -32z"/>
<path d="M8171 3341 c-17 -33 -31 -66 -31 -73 1 -7 17 18 36 56 19 37 33 70
30 73 -2 3 -18 -22 -35 -56z"/>
<path d="M6150 3204 c-18 -25 -28 -49 -24 -54 13 -11 275 -204 305 -223 25
-17 26 -17 58 28 18 25 31 50 29 55 -4 11 -316 240 -327 240 -4 0 -22 -21 -41
-46z"/>
<path d="M8210 3173 c-11 -26 -17 -50 -13 -53 9 -8 229 -100 238 -100 11 0 46
93 38 100 -9 8 -227 100 -236 100 -3 0 -15 -21 -27 -47z"/>
<path d="M8022 3073 c-57 -93 -199 -293 -208 -293 -2 0 -138 83 -303 185 -165
102 -301 185 -304 185 -5 0 -69 -102 -65 -105 2 -1 135 -82 295 -181 161 -98
293 -183 293 -188 0 -14 -191 -224 -322 -352 -122 -120 -280 -264 -348 -317
-19 -15 -30 -27 -23 -27 19 0 178 137 330 284 101 98 326 338 379 405 2 2 32
-15 68 -38 36 -22 70 -41 75 -41 9 0 61 82 61 97 0 5 -25 23 -55 41 -30 18
-56 36 -59 41 -3 4 23 46 58 93 81 110 200 297 194 304 -3 3 -33 -39 -66 -93z"/>
</g>
</svg>
